<?xml version="1.0" encoding="UTF-8" standalone="no"?>
<!-- Uploaded to: SVG Repo, www.svgrepo.com, Generator: SVG Repo Mixer Tools -->

<svg
   fill="#000000"
   height="800"
   width="800"
   version="1.1"
   id="Layer_1"
   viewBox="-143 145 512 512"
   xml:space="preserve"
   sodipodi:docname="github-svgrepo-com-2.svg"
   inkscape:version="1.4 (e7c3feb1, 2024-10-09)"
   xmlns:inkscape="http://www.inkscape.org/namespaces/inkscape"
   xmlns:sodipodi="http://sodipodi.sourceforge.net/DTD/sodipodi-0.dtd"
   xmlns="http://www.w3.org/2000/svg"
   xmlns:svg="http://www.w3.org/2000/svg"><defs
   id="defs4" /><sodipodi:namedview
   id="namedview4"
   pagecolor="#ffffff"
   bordercolor="#000000"
   borderopacity="0.25"
   inkscape:showpageshadow="2"
   inkscape:pageopacity="0.0"
   inkscape:pagecheckerboard="0"
   inkscape:deskcolor="#d1d1d1"
   inkscape:zoom="0.0325"
   inkscape:cx="400"
   inkscape:cy="400"
   inkscape:window-width="1104"
   inkscape:window-height="245"
   inkscape:window-x="0"
   inkscape:window-y="38"
   inkscape:window-maximized="0"
   inkscape:current-layer="Layer_1" />
<g
   id="g4">
	<path
   d="M -143,145 V 657 H 369 V 145 Z M 339,627 H -113 V 175 h 452 z"
   id="path1" />
	<path
   d="m 54,509.2 c 19.3,3.4 39.2,3.7 57.3,5.2 20.2,-1.5 38.9,-1.6 57.1,-4.5 31.8,-5.1 55.8,-22 67.8,-52.7 4.2,-10.7 6.5,-22.4 7.9,-33.8 3.1,-25.2 -1.2,-48.8 -18.4,-68.7 -0.8,-0.9 -1.3,-2.3 -1.2,-3.5 0.9,-20.1 -1.8,-39.6 -8.6,-58.6 -0.9,-2.4 -2,-3.3 -4.5,-2.6 -5.6,1.7 -11.4,3 -16.9,5 -15.2,5.5 -29.1,13.5 -42.6,22.2 -1.4,0.9 -3.5,1.5 -5.2,1.2 -22.1,-3.9 -44.3,-3.7 -66.5,-0.3 -2.2,0.3 -5,-0.2 -6.8,-1.3 -15.7,-10.2 -31.7,-20.2 -50,-25 -15.1,-4 -12,-4.8 -16.3,8.9 -5.1,16.4 -7.1,33.4 -6,50.6 0.1,1.2 -0.8,2.7 -1.6,3.8 -6.6,7.9 -11.7,16.6 -14.8,26.4 -6,19 -4.8,38.2 -1,57.3 7.5,37.7 32.9,63.9 70.3,70.4 z M 21.4,419.7 c 8.5,-16.5 23.2,-22.3 40.6,-22.6 9.5,-0.1 19.1,0.7 28.7,1.6 20.1,1.8 40,-0.1 60,-1.2 8.8,-0.5 17.8,-0.7 26.4,0.8 18.5,3.2 32.5,21.6 32.8,42.3 0.1,6.1 -0.6,12.4 -1.8,18.4 -3.3,15.6 -12.4,26.3 -27.6,31.8 -14.7,5.4 -29.9,7.6 -45.4,8.6 -7.5,0.5 -15,0.1 -22.5,0.1 -20.2,0.4 -40.4,-0.4 -59.9,-6.2 -24.5,-7.3 -35.5,-21.9 -36.2,-47.5 -0.3,-9.1 0.7,-17.9 4.9,-26.1 z"
   id="path2" />
	<path
   d="m 78.7,466.1 c 9.8,-10.6 9.7,-30.5 0,-41 -6.5,-7 -15.9,-7.2 -22.6,-0.2 -5.5,5.7 -7.4,12.9 -7.7,19.3 0,9.6 2.8,17.3 7.7,22.3 6.8,6.8 16.1,6.7 22.6,-0.4 z"
   id="path3" />
	<path
   d="m 148.2,467.2 c 6.5,5.9 15.3,5.6 21.4,-0.7 5.6,-5.8 7.6,-13.1 7.8,-21 -0.2,-7.9 -2.2,-15.1 -7.9,-20.9 -6.1,-6.3 -14.9,-6.5 -21.4,-0.6 -11.1,10.3 -11.1,33 0.1,43.2 z"
   id="path4" />
</g>
</svg>
