<?xml version="1.0" encoding="UTF-8" standalone="no"?>
<!-- Uploaded to: SVG Repo, www.svgrepo.com, Generator: SVG Repo Mixer Tools -->

<svg
   height="800"
   width="684.28284"
   version="1.1"
   id="_x32_"
   viewBox="0 0 437.94102 512"
   xml:space="preserve"
   sodipodi:docname="research-3-svgrepo-com.svg"
   inkscape:version="1.4 (e7c3feb1, 2024-10-09)"
   xmlns:inkscape="http://www.inkscape.org/namespaces/inkscape"
   xmlns:sodipodi="http://sodipodi.sourceforge.net/DTD/sodipodi-0.dtd"
   xmlns="http://www.w3.org/2000/svg"
   xmlns:svg="http://www.w3.org/2000/svg"><defs
   id="defs5" /><sodipodi:namedview
   id="namedview5"
   pagecolor="#ffffff"
   bordercolor="#000000"
   borderopacity="0.25"
   inkscape:showpageshadow="2"
   inkscape:pageopacity="0.0"
   inkscape:pagecheckerboard="0"
   inkscape:deskcolor="#d1d1d1"
   inkscape:zoom="0.0325"
   inkscape:cx="323.07692"
   inkscape:cy="384.61538"
   inkscape:window-width="1104"
   inkscape:window-height="250"
   inkscape:window-x="0"
   inkscape:window-y="38"
   inkscape:window-maximized="0"
   inkscape:current-layer="_x32_" />
<style
   type="text/css"
   id="style1">
	.st0{fill:#000000;}
</style>
<g
   id="g5"
   transform="translate(-37.029)">
	<path
   class="st0"
   d="m 474.97,286.112 -36.332,-1.028 c 0,0 -50.09,-94.134 -52.646,-98.918 -8.787,-16.516 -24.663,-28.558 -54.437,-28.558 h -38.934 l 0.062,-51.25 h -31.939 l -0.093,84.592 c -17.185,-11.638 -40.648,-8.102 -53.518,8.545 -13.384,17.333 -10.205,42.214 7.12,55.59 l 91.906,71.061 66.838,106.762 7.9,12.612 c 2.29,3.638 3.443,7.767 3.443,11.919 0,3.763 -0.904,7.456 -2.804,10.898 -3.958,7.143 -11.545,11.607 -19.694,11.607 h -0.124 L 91.325,479.617 c -8.148,0 -15.673,-4.456 -19.63,-11.592 -1.917,-3.451 -2.805,-7.143 -2.805,-10.906 0,-4.144 1.153,-8.28 3.443,-11.918 L 174.897,282.093 c 11.856,-18.867 18.166,-40.664 18.228,-62.92 l 0.062,-112.815 h -31.814 l -0.078,51.226 h -22.373 c -18.618,0 -33.7,15.09 -33.7,33.708 0,10.501 4.798,19.872 12.324,26.058 -14.427,3.841 -25.021,16.959 -25.021,32.57 0,18.61 15.097,33.708 33.7,33.708 h 10.064 l -90.987,144.56 c -5.531,8.788 -8.273,18.86 -8.273,28.87 v 0.132 c 0,9.044 2.228,18.034 6.746,26.198 9.566,17.333 27.732,28.099 47.55,28.099 l 263.568,0.319 V 512 l 6.949,-0.194 h 6.87 v -0.195 l 0.639,-0.054 v -0.32 c 16.764,-2.36 31.69,-12.363 40.025,-27.413 4.596,-8.226 6.824,-17.34 6.824,-26.385 0,-6.886 -1.262,-13.711 -3.88,-20.145 l 62.647,7.019 V 286.112 Z m -214.35,-70.258 -23.246,33.389 -15.331,-11.678 c -9.02,-6.972 -10.687,-19.974 -3.724,-29.002 3.958,-5.111 9.925,-8.032 16.406,-8.032 4.596,0 8.958,1.496 12.62,4.316 l 13.29,10.112 z"
   id="path1" />
	<path
   class="st0"
   d="M 221.576,36.309 C 231.594,36.332 239.743,28.2 239.743,18.189 239.758,8.148 231.64,0.007 221.607,0 c -10.033,-0.008 -18.166,8.11 -18.182,18.135 -0.015,10.033 8.117,18.159 18.151,18.174 z"
   id="path2" />
	<path
   class="st0"
   d="m 209.533,97.851 c 0,5.92 4.783,10.704 10.688,10.704 5.905,0 10.673,-4.768 10.673,-10.665 0.015,-5.897 -4.768,-10.696 -10.657,-10.696 -5.906,0 -10.689,4.775 -10.704,10.657 z"
   id="path3" />
	<path
   class="st0"
   d="m 232.933,59.609 c -0.015,7.058 5.703,12.776 12.761,12.784 7.042,0 12.76,-5.687 12.775,-12.753 0.016,-7.065 -5.702,-12.775 -12.744,-12.775 -7.058,-0.024 -12.792,5.694 -12.792,12.744 z"
   id="path4" />
	<path
   class="st0"
   d="m 170.489,334.348 -63.769,101.34 c -2.695,4.3 -2.851,9.722 -0.405,14.154 2.446,4.464 7.12,7.447 12.215,7.471 h 216.189 c 5.064,0 9.738,-2.758 12.184,-7.19 2.477,-4.44 2.322,-9.893 -0.374,-14.178 l -63.52,-101.474 c -2.571,-4.097 -6.98,-6.544 -11.825,-6.551 l -88.9,-0.086 c -4.831,0.002 -9.241,2.432 -11.795,6.514 z m 84.257,70.438 c 5.64,0 10.205,4.572 10.205,10.205 0,5.64 -4.564,10.213 -10.205,10.213 -5.64,0 -10.205,-4.573 -10.205,-10.213 0,-5.633 4.565,-10.205 10.205,-10.205 z m -49,-43.913 c 8.444,0 15.316,6.856 15.316,15.315 0,8.452 -6.871,15.308 -15.316,15.308 -8.46,0 -15.315,-6.856 -15.315,-15.308 0,-8.459 6.856,-15.315 15.315,-15.315 z"
   id="path5" />
</g>
</svg>
