<?xml version="1.0" encoding="UTF-8" standalone="no"?>
<!-- Uploaded to: SVG Repo, www.svgrepo.com, Generator: SVG Repo Mixer Tools -->

<svg
   fill="#000000"
   version="1.1"
   id="Layer_1"
   viewBox="0 0 496 496"
   xml:space="preserve"
   sodipodi:docname="research-3-svgrepo-com.svg"
   width="496"
   height="496"
   inkscape:version="1.4 (e7c3feb1, 2024-10-09)"
   xmlns:inkscape="http://www.inkscape.org/namespaces/inkscape"
   xmlns:sodipodi="http://sodipodi.sourceforge.net/DTD/sodipodi-0.dtd"
   xmlns="http://www.w3.org/2000/svg"
   xmlns:svg="http://www.w3.org/2000/svg"><defs
   id="defs13" /><sodipodi:namedview
   id="namedview13"
   pagecolor="#ffffff"
   bordercolor="#000000"
   borderopacity="0.25"
   inkscape:showpageshadow="2"
   inkscape:pageopacity="0.0"
   inkscape:pagecheckerboard="0"
   inkscape:deskcolor="#d1d1d1"
   inkscape:zoom="0.052419355"
   inkscape:cx="248"
   inkscape:cy="248"
   inkscape:window-width="1104"
   inkscape:window-height="245"
   inkscape:window-x="0"
   inkscape:window-y="38"
   inkscape:window-maximized="0"
   inkscape:current-layer="Layer_1" />
<g
   id="g13">
	<g
   id="g12">
		<g
   id="g11">
			<path
   d="m 464,280 h -80 v -16 h -16 v 16 h -12.464 c -7.52,-27.12 -24.28,-50.384 -46.744,-66.176 l 23.856,-38.168 c 1.104,0.16 2.2,0.344 3.352,0.344 6.456,0 12.296,-2.592 16.616,-6.752 l 39.68,19.84 c -0.12,0.968 -0.296,1.92 -0.296,2.912 0,13.232 10.768,24 24,24 13.232,0 24,-10.768 24,-24 0,-6.52 -2.632,-12.432 -6.872,-16.76 l 36.144,-79.52 c 0.912,0.112 1.792,0.28 2.728,0.28 13.232,0 24,-10.768 24,-24 0,-13.232 -10.768,-24 -24,-24 -13.232,0 -24,10.768 -24,24 0,6.52 2.632,12.432 6.872,16.76 l -36.144,79.52 C 417.816,168.168 416.936,168 416,168 c -6.456,0 -12.296,2.592 -16.616,6.752 l -39.68,-19.84 c 0.12,-0.968 0.296,-1.92 0.296,-2.912 0,-13.232 -10.768,-24 -24,-24 -13.232,0 -24,10.768 -24,24 0,6.272 2.472,11.944 6.424,16.224 L 295.12,205.52 C 278.592,196.936 259.872,192 240,192 c -5.44,0 -10.752,0.488 -16,1.192 V 16 h 32 V 0 H 224 112 80 v 16 h 32 V 221.76 L 10.272,388.864 C 3.552,399.912 0,412.584 0,425.52 0,464.384 31.616,496 70.48,496 h 195.04 c 38.856,0 70.48,-31.616 70.48,-70.48 0,-11.264 -2.848,-22.264 -7.984,-32.232 12.792,-13.832 22.344,-30.64 27.52,-49.296 H 368 v 16 h 16 v -16 h 80 c 17.648,0 32,-14.352 32,-32 C 496,294.344 481.648,280 464,280 Z m 8,-216 c 4.416,0 8,3.584 8,8 0,4.416 -3.584,8 -8,8 -4.416,0 -8,-3.584 -8,-8 0,-4.416 3.584,-8 8,-8 z m -56,120 c 4.416,0 8,3.584 8,8 0,4.416 -3.584,8 -8,8 -4.416,0 -8,-3.584 -8,-8 0,-4.416 3.584,-8 8,-8 z m -80,-40 c 4.416,0 8,3.584 8,8 0,4.416 -3.584,8 -8,8 -4.416,0 -8,-3.584 -8,-8 0,-4.416 3.584,-8 8,-8 z M 243.352,288.336 C 242.248,288.184 241.152,288 240,288 c -13.232,0 -24,10.768 -24,24 0,13.232 10.768,24 24,24 13.232,0 24,-10.768 24,-24 0,-6.272 -2.472,-11.944 -6.424,-16.224 l 25.728,-41.168 C 300.696,267.768 312,288.56 312,312 c 0,39.704 -32.296,72 -72,72 -39.704,0 -72,-32.296 -72,-72 0,-39.704 32.296,-72 72,-72 10.536,0 20.528,2.328 29.56,6.416 z M 248,312 c 0,4.416 -3.584,8 -8,8 -4.416,0 -8,-3.584 -8,-8 0,-4.416 3.584,-8 8,-8 4.416,0 8,3.584 8,8 z M 128,226.24 V 16 h 80 V 196.464 C 167.544,207.688 135.688,239.544 124.464,280 H 95.28 Z M 265.52,480 H 70.48 C 40.44,480 16,455.56 16,425.52 c 0,-10 2.752,-19.8 7.944,-28.336 L 85.536,296 h 35.656 c -0.704,5.248 -1.192,10.56 -1.192,16 0,66.168 53.832,120 120,120 28.76,0 55.176,-10.184 75.864,-27.12 2.68,6.528 4.136,13.528 4.136,20.64 0,30.04 -24.44,54.48 -54.48,54.48 z M 240,416 c -57.344,0 -104,-46.656 -104,-104 0,-57.344 46.656,-104 104,-104 16.76,0 32.56,4.08 46.592,11.152 l -8.52,13.632 C 266.536,227.216 253.648,224 240,224 c -48.52,0 -88,39.48 -88,88 0,48.52 39.48,88 88,88 48.52,0 88,-39.48 88,-88 0,-29.152 -14.304,-54.96 -36.2,-70.984 l 8.496,-13.592 C 326.696,246.304 344,277.136 344,312 c 0,57.344 -46.656,104 -104,104 z m 128,-88 h -9.192 c 0.704,-5.248 1.192,-10.56 1.192,-16 0,-5.44 -0.488,-10.752 -1.192,-16 H 368 Z m 96,0 h -80 v -32 h 80 c 8.824,0 16,7.176 16,16 0,8.824 -7.176,16 -16,16 z"
   id="path1" />
			<rect
   x="376"
   y="24"
   width="16"
   height="16"
   id="rect1" />
			<rect
   x="347.746"
   y="35.676998"
   transform="matrix(0.7071,0.7071,-0.7071,0.7071,135.0795,-238.7578)"
   width="16"
   height="16"
   id="rect2" />
			<rect
   x="336"
   y="64"
   width="16"
   height="16"
   id="rect3" />
			<rect
   x="347.73999"
   y="92.230003"
   transform="matrix(-0.7071,-0.7071,0.7071,-0.7071,536.4119,422.6493)"
   width="16"
   height="16"
   id="rect4" />
			<rect
   x="376"
   y="104"
   width="16"
   height="16"
   id="rect5" />
			<rect
   x="404.245"
   y="92.292999"
   transform="matrix(0.7071,0.7071,-0.7071,0.7071,191.6615,-262.1257)"
   width="16"
   height="16"
   id="rect6" />
			<rect
   x="416"
   y="64"
   width="16"
   height="16"
   id="rect7" />
			<rect
   x="404.25101"
   y="35.740002"
   transform="matrix(0.7071,0.7071,-0.7071,0.7071,151.6749,-278.6951)"
   width="16"
   height="16"
   id="rect8" />
			<rect
   x="304"
   y="64"
   width="16"
   height="16"
   id="rect9" />
			<rect
   x="272"
   y="64"
   width="16"
   height="16"
   id="rect10" />
			<rect
   x="240"
   y="64"
   width="16"
   height="16"
   id="rect11" />
		</g>
	</g>
</g>
</svg>
