<?xml version="1.0" encoding="UTF-8" standalone="no"?>
<!-- Uploaded to: SVG Repo, www.svgrepo.com, Generator: SVG Repo Mixer Tools -->

<svg
   fill="#000000"
   width="774.80121"
   height="693.8103"
   viewBox="0 0 61.984097 55.504824"
   version="1.1"
   xml:space="preserve"
   id="svg7"
   sodipodi:docname="contact-chatting-communication-svgrepo-com.svg"
   inkscape:version="1.4 (e7c3feb1, 2024-10-09)"
   xmlns:inkscape="http://www.inkscape.org/namespaces/inkscape"
   xmlns:sodipodi="http://sodipodi.sourceforge.net/DTD/sodipodi-0.dtd"
   xmlns="http://www.w3.org/2000/svg"
   xmlns:svg="http://www.w3.org/2000/svg"><defs
   id="defs7" /><sodipodi:namedview
   id="namedview7"
   pagecolor="#ffffff"
   bordercolor="#000000"
   borderopacity="0.25"
   inkscape:showpageshadow="2"
   inkscape:pageopacity="0.0"
   inkscape:pagecheckerboard="0"
   inkscape:deskcolor="#d1d1d1"
   inkscape:zoom="0.2704627"
   inkscape:cx="219.99336"
   inkscape:cy="471.41435"
   inkscape:window-width="1232"
   inkscape:window-height="650"
   inkscape:window-x="0"
   inkscape:window-y="38"
   inkscape:window-maximized="0"
   inkscape:current-layer="svg7" />

<g
   id="_x32_5_attachment"
   transform="translate(-1.0076652,-4.2454774)" />

<g
   id="_x32_4_office"
   transform="translate(-1.0076652,-4.2454774)" />

<g
   id="_x32_3_pin"
   transform="translate(-1.0076652,-4.2454774)" />

<g
   id="_x32_2_business_card"
   transform="translate(-1.0076652,-4.2454774)" />

<g
   id="_x32_1_form"
   transform="translate(-1.0076652,-4.2454774)" />

<g
   id="_x32_0_headset"
   transform="translate(-1.0076652,-4.2454774)" />

<g
   id="_x31_9_video_call"
   transform="translate(-1.0076652,-4.2454774)" />

<g
   id="_x31_8_letter_box"
   transform="translate(-1.0076652,-4.2454774)" />

<g
   id="_x31_7_papperplane"
   transform="translate(-1.0076652,-4.2454774)" />

<g
   id="_x31_6_laptop"
   transform="translate(-1.0076652,-4.2454774)" />

<g
   id="_x31_5_connection"
   transform="translate(-1.0076652,-4.2454774)" />

<g
   id="_x31_4_phonebook"
   transform="translate(-1.0076652,-4.2454774)" />

<g
   id="_x31_3_classic_telephone"
   transform="translate(-1.0076652,-4.2454774)" />

<g
   id="_x31_2_sending_mail"
   transform="translate(-1.0076652,-4.2454774)" />

<g
   id="_x31_1_man_talking"
   transform="translate(-1.0076652,-4.2454774)" />

<g
   id="_x31_0_date"
   transform="translate(-1.0076652,-4.2454774)" />

<g
   id="_x30_9_review"
   transform="translate(-1.0076652,-4.2454774)" />

<g
   id="_x30_8_email"
   transform="translate(-1.0076652,-4.2454774)" />

<g
   id="_x30_7_information"
   transform="translate(-1.0076652,-4.2454774)" />

<g
   id="_x30_6_phone_talking"
   transform="translate(-1.0076652,-4.2454774)" />

<g
   id="_x30_5_women_talking"
   transform="translate(-1.0076652,-4.2454774)" />

<g
   id="_x30_4_calling"
   transform="translate(-1.0076652,-4.2454774)" />

<g
   id="_x30_3_women"
   transform="translate(-1.0076652,-4.2454774)" />

<g
   id="_x30_2_writing"
   transform="translate(-1.0076652,-4.2454774)" />

<g
   id="_x30_1_chatting"
   transform="translate(-1.0076652,-4.2454774)">

<g
   id="g7">

<g
   id="g1">

<path
   d="m 38.0728,40.9023 c -0.5522,0 -1.0259,-0.4478 -1.0259,-1 0,-0.5522 0.4219,-1 0.9741,-1 h 0.0518 c 0.5522,0 1,0.4478 1,1 0,0.5522 -0.4478,1 -1,1 z"
   id="path1" />

</g>

<g
   id="g2">

<path
   d="m 45.3604,40.9023 c -0.5522,0 -1.0273,-0.4478 -1.0273,-1 0,-0.5522 0.4199,-1 0.9722,-1 h 0.0552 c 0.5522,0 1,0.4478 1,1 0,0.5522 -0.4479,1 -1.0001,1 z"
   id="path2" />

</g>

<g
   id="g3">

<path
   d="m 52.6445,40.9023 c -0.5522,0 -1.0273,-0.4478 -1.0273,-1 0,-0.5522 0.4199,-1 0.9722,-1 h 0.0552 c 0.5522,0 1,0.4478 1,1 0,0.5522 -0.4478,1 -1.0001,1 z"
   id="path3" />

</g>

<g
   id="g4">

<path
   d="m 12.584,25.186 c -0.5522,0 -1.0293,-0.4478 -1.0293,-1 0,-0.5522 0.418,-1 0.9702,-1 h 0.0591 c 0.5522,0 1,0.4478 1,1 0,0.5522 -0.4478,1 -1,1 z"
   id="path4" />

</g>

<g
   id="g5">

<path
   d="m 20.7529,25.186 c -0.5522,0 -1.0293,-0.4478 -1.0293,-1 0,-0.5522 0.4185,-1 0.9707,-1 h 0.0586 c 0.5522,0 1,0.4478 1,1 0,0.5522 -0.4477,1 -1,1 z"
   id="path5" />

</g>

<g
   id="g6">

<path
   d="m 28.9219,25.186 c -0.5522,0 -1.0293,-0.4478 -1.0293,-1 0,-0.5522 0.4185,-1 0.9707,-1 h 0.0586 c 0.5522,0 1,0.4478 1,1 0,0.5522 -0.4478,1 -1,1 z"
   id="path6" />

</g>

<path
   d="m 56.5327,26.0718 h -5e-4 C 52.8745,23.0659 48.2666,21.6665 43.5551,22.1255 42.4978,22.229 41.4684,22.4366 40.4664,22.7174 40.2613,19.5635 39.2974,16.4949 37.6459,13.77 34.912,9.2573 30.5854,6.0796 25.4618,4.8222 20.3392,3.5649 15.0316,4.3788 10.5204,7.1127 1.2055,12.7558 -1.7818,24.9247 3.8612,34.2401 c 0.4487,0.7378 0.9443,1.4468 1.4785,2.1147 l -2.1206,6.457 c -0.1152,0.3521 -0.0269,0.7388 0.23,1.0059 0.1914,0.1982 0.4526,0.3062 0.7202,0.3062 0.0923,0 0.1851,-0.0127 0.2764,-0.0391 l 7.8203,-2.2476 c 4.9188,2.3405 10.487,2.549 15.5263,0.6185 0.6382,4.1645 2.7308,8.1203 6.233,10.9997 4.626,3.8027 10.7549,5.0024 16.4702,3.2461 l 6.5781,2.9609 c 0.1313,0.0591 0.2715,0.0879 0.4106,0.0879 0.2183,0 0.4351,-0.0718 0.6138,-0.2104 0.2925,-0.2275 0.4351,-0.5977 0.3711,-0.9624 L 57.43,52.6654 c 0.5459,-0.5166 1.062,-1.0698 1.5391,-1.6499 6.2033,-7.5492 5.11,-18.7391 -2.4364,-24.9437 z M 12.8066,39.8755 C 12.5825,39.7642 12.3252,39.7402 12.083,39.8091 L 5.709,41.6411 7.4116,36.456 C 7.52,36.1254 7.4492,35.7622 7.2241,35.497 6.6201,34.7851 6.0635,34.0126 5.5713,33.2026 0.5,24.8315 3.1851,13.895 11.5571,8.8232 c 4.0537,-2.458 8.8218,-3.1885 13.4282,-2.0591 4.6045,1.1304 8.4932,3.9863 10.9502,8.0425 1.5782,2.6036 2.4474,5.5574 2.5516,8.5797 -2.6577,1.0986 -5.0207,2.841 -6.8978,5.1259 -2.8444,3.4614 -4.1367,7.6871 -3.9944,11.8476 -4.7704,2.0027 -10.1204,1.8497 -14.7883,-0.4843 z m 44.6177,9.8701 c -0.5303,0.645 -1.1147,1.2524 -1.7378,1.8062 -0.2598,0.2305 -0.3809,0.5791 -0.3208,0.9209 l 0.8066,4.5908 -5.2051,-2.3433 c -0.1304,-0.0586 -0.2705,-0.0879 -0.4106,-0.0879 -0.106,0 -0.2124,0.0166 -0.3145,0.0508 -5.1646,1.7104 -10.7529,0.6758 -14.9463,-2.7725 -6.6953,-5.5044 -7.6646,-15.4312 -2.1616,-22.1289 2.666,-3.2446 6.436,-5.2568 10.6157,-5.6655 4.1816,-0.4072 8.2681,0.8345 11.5127,3.5005 h -5e-4 c 6.6949,5.5044 7.6647,15.4316 2.1622,22.1289 z"
   id="path7" />

</g>

</g>

</svg>
