<?xml version="1.0" encoding="UTF-8" standalone="no"?>
<!-- Uploaded to: SVG Repo, www.svgrepo.com, Generator: SVG Repo Mixer Tools -->

<svg
   fill="#000000"
   height="650.23907"
   width="800"
   version="1.1"
   id="Layer_1"
   viewBox="0 0 512 416.15301"
   xml:space="preserve"
   sodipodi:docname="blog-svgrepo-com.svg"
   inkscape:version="1.4 (e7c3feb1, 2024-10-09)"
   xmlns:inkscape="http://www.inkscape.org/namespaces/inkscape"
   xmlns:sodipodi="http://sodipodi.sourceforge.net/DTD/sodipodi-0.dtd"
   xmlns="http://www.w3.org/2000/svg"
   xmlns:svg="http://www.w3.org/2000/svg"><defs
   id="defs10" /><sodipodi:namedview
   id="namedview10"
   pagecolor="#ffffff"
   bordercolor="#000000"
   borderopacity="0.25"
   inkscape:showpageshadow="2"
   inkscape:pageopacity="0.0"
   inkscape:pagecheckerboard="0"
   inkscape:deskcolor="#d1d1d1"
   inkscape:zoom="0.0325"
   inkscape:cx="400"
   inkscape:cy="338.46154"
   inkscape:window-width="1104"
   inkscape:window-height="245"
   inkscape:window-x="0"
   inkscape:window-y="38"
   inkscape:window-maximized="0"
   inkscape:current-layer="Layer_1" />
<g
   id="g2"
   transform="translate(0,-47.923)">
	<g
   id="g1">
		<path
   d="M 501.801,47.923 H 10.199 C 4.566,47.923 0,52.489 0,58.122 v 322.581 c 0,5.633 4.566,10.199 10.199,10.199 h 179.845 v 52.775 h -36.179 c -5.633,0 -10.199,4.566 -10.199,10.199 0,5.633 4.566,10.199 10.199,10.199 h 204.27 v 0.001 c 5.633,0 10.199,-4.566 10.199,-10.199 0,-5.633 -4.566,-10.199 -10.199,-10.199 h -36.179 v -52.775 h 179.845 c 5.633,0 10.199,-4.566 10.199,-10.199 V 58.122 c 0,-5.633 -4.566,-10.199 -10.199,-10.199 z M 301.558,443.679 h -91.116 v -52.775 h 91.116 z M 491.602,370.504 H 20.398 V 68.321 h 471.203 v 302.183 z"
   id="path1" />
	</g>
</g>
<g
   id="g4"
   transform="translate(0,-47.923)">
	<g
   id="g3">
		<path
   d="M 238.659,92.178 H 55.75 c -5.633,0 -10.199,4.566 -10.199,10.199 v 131.818 c 0,5.633 4.566,10.199 10.199,10.199 h 182.909 c 5.633,0 10.199,-4.566 10.199,-10.199 V 102.378 c 0.001,-5.633 -4.566,-10.2 -10.199,-10.2 z m -157.812,131.818 32.413,-32.413 32.413,32.413 z m 147.613,0.001 h -54.065 v -0.001 c -0.261,-0.337 -0.537,-0.664 -0.846,-0.973 l -17.522,-17.522 39.683,-39.683 32.751,32.751 v 25.428 z m 0,-54.277 -25.54,-25.539 c -3.983,-3.983 -10.441,-3.982 -14.424,0 l -46.895,46.895 -21.13,-21.13 c -3.983,-3.983 -10.441,-3.983 -14.425,0 L 65.947,210.045 V 112.576 H 228.46 Z"
   id="path2" />
	</g>
</g>
<g
   id="g6"
   transform="translate(0,-47.923)">
	<g
   id="g5">
		<path
   d="M 465.262,110.547 446.8,92.084 c -9.398,-9.397 -24.687,-9.396 -34.084,0 L 280.37,224.431 c -1.231,1.231 -2.079,2.699 -2.549,4.257 l -0.001,0.001 -0.002,0.008 c -0.008,0.026 -0.015,0.051 -0.023,0.076 L 263.47,276.11 H 55.75 c -5.633,0 -10.199,4.566 -10.199,10.199 0,5.633 4.566,10.199 10.199,10.199 h 215.28 c 0.003,0 0.007,0 0.01,0 0.002,0 0.004,0 0.007,0 h 0.312 c 1.496,0 2.913,-0.33 4.193,-0.909 l 53.106,-16.072 10e-4,-10e-4 c 1.593,-0.482 3.059,-1.351 4.256,-2.549 L 465.262,144.63 c 4.552,-4.552 7.059,-10.605 7.059,-17.042 0,-6.438 -2.507,-12.49 -7.059,-17.041 z m -178.943,160.481 6.092,-20.131 14.039,14.039 z m 39.384,-15.687 -23.698,-23.698 103.538,-103.538 23.698,23.698 z m 125.136,-125.134 -7.174,7.173 -23.698,-23.699 7.174,-7.173 c 1.443,-1.444 3.793,-1.444 5.236,0 l 18.462,18.463 c 0.943,0.943 1.084,2.045 1.084,2.618 10e-4,0.573 -0.14,1.675 -1.084,2.618 z"
   id="path4" />
	</g>
</g>
<g
   id="g8"
   transform="translate(0,-47.923)">
	<g
   id="g7">
		<path
   d="M 412.048,325.158 H 55.75 c -5.633,0 -10.199,4.566 -10.199,10.199 0,5.633 4.566,10.199 10.199,10.199 h 356.298 c 5.633,0 10.199,-4.566 10.199,-10.199 0,-5.633 -4.566,-10.199 -10.199,-10.199 z"
   id="path6" />
	</g>
</g>
<g
   id="g10"
   transform="translate(0,-47.923)">
	<g
   id="g9">
		<path
   d="m 457.333,325.158 h -5.509 c -5.633,0 -10.199,4.566 -10.199,10.199 0,5.633 4.566,10.199 10.199,10.199 h 5.509 c 5.633,0 10.199,-4.566 10.199,-10.199 0.001,-5.633 -4.566,-10.199 -10.199,-10.199 z"
   id="path8" />
	</g>
</g>
</svg>
