<svg xmlns="http://www.w3.org/2000/svg" viewBox="0 0 1920 1080" role="img" aria-labelledby="title desc">
  <title id="title">Amazon Nova</title>
  <desc id="desc">Amazon Nova wordmark on a purple, blue, and teal gradient background.</desc>
  <defs>
    <linearGradient id="bg" x1="0" y1="1" x2="1" y2="0">
      <stop offset="0" stop-color="#c000d8"/>
      <stop offset="0.45" stop-color="#35308c"/>
      <stop offset="0.72" stop-color="#16498a"/>
      <stop offset="1" stop-color="#005f73"/>
    </linearGradient>
    <radialGradient id="glow" cx="0.09" cy="0.75" r="0.7">
      <stop offset="0" stop-color="#e42cff" stop-opacity="0.65"/>
      <stop offset="1" stop-color="#e42cff" stop-opacity="0"/>
    </radialGradient>
  </defs>
  <rect width="1920" height="1080" fill="url(#bg)"/>
  <rect width="1920" height="1080" fill="url(#glow)"/>
  <g transform="translate(150 425)" fill="none" stroke="#fff" stroke-width="8" stroke-linecap="round" stroke-linejoin="round">
    <path d="M90 92 145 60 200 92 200 158 145 190 90 158Z"/>
    <path d="M145 60 145 18 200 -14 255 18 255 85 200 118 200 158"/>
    <path d="M90 158 35 190 35 256 90 288 145 256 145 190"/>
    <path d="M35 190 90 222"/>
    <path d="M90 288 145 255"/>
    <path d="M145 60 145 105"/>
    <path d="M200 -14 200 64"/>
    <path d="M255 18 255 150 330 150"/>
    <path d="M255 85 305 85 305 30"/>
    <path d="M305 30 285 30 305 0 326 30 305 30"/>
    <path d="M255 150 340 150"/>
    <circle cx="365" cy="150" r="22"/>
    <path d="M255 198 320 198 320 266"/>
    <path d="M320 266 350 266 350 310 305 310 305 266 320 266"/>
    <path d="M145 190 200 222 255 190"/>
    <path d="M145 190 90 222"/>
  </g>
  <text x="475" y="602" fill="#fff" font-family="Arial, Helvetica, sans-serif" font-size="140" font-weight="700" letter-spacing="0">Amazon Nova</text>
</svg>
